<?xml version="1.0" encoding="utf-8"?>
<!-- Generator: Adobe Illustrator 18.0.0, SVG Export Plug-In . SVG Version: 6.00 Build 0)  -->
<!DOCTYPE svg PUBLIC "-//W3C//DTD SVG 1.1//EN" "http://www.w3.org/Graphics/SVG/1.1/DTD/svg11.dtd">
<svg version="1.1" id="Layer_1" xmlns="http://www.w3.org/2000/svg" xmlns:xlink="http://www.w3.org/1999/xlink" x="0px" y="0px"
	 viewBox="0 0 83.8 84.9" enable-background="new 0 0 83.8 84.9" xml:space="preserve">
<path fill="#FFFFFF" d="M50.8,6.7l-0.5-0.1l0.2,0.5c0.3,0.9,0.4,1.9,0.4,3c0.1,0.8,0.1,1.6,0.1,2.6c-0.1,1.8,1,4.2,2.9,6.3
	c2.1,2.3,4.7,3.7,6.8,3.7c0.1,0,0.2,0,0.3,0c0.3,0,0.6,0,0.9,0c2.7,0,6.4,0.3,8.6,3.2c2.4,2.9,2.8,8.3-0.6,11.5
	c-1.5,1.6-3.6,2.5-6,2.5c-2.1,0-4.2-0.7-5.6-1.9c-3-2.3-3.3-6.3-3.2-9.5c0.2-3.4-2.8-6.9-5.8-8.7c-2-1.2-4.3-1.8-6.7-1.8
	c-5,0-9.7,2.7-12.1,6.8c-2,3.6-2.1,9-0.2,12.9c1.6,3.3,5.2,6.5,8.9,6.5l0.2,0c0.3,0,0.6,0,0.9,0c2.7,0,6.5,0.3,8.6,3.2
	c2.4,2.9,2.8,8.3-0.6,11.5c-1.5,1.6-3.6,2.5-6,2.5c-2.1,0-4.2-0.7-5.5-1.9c-3-2.3-3.3-6.3-3.2-9.5c0.1-1.8-1-4.2-2.9-6.3
	c-2.1-2.3-4.7-3.7-6.8-3.7c-0.1,0-0.2,0-0.3,0c-0.3,0-0.6,0-0.9,0c-0.6,0-1.2,0-1.8-0.1c-2.3,0.1-4.4-0.7-5.9-2.1c0,0-0.1,0-0.1-0.1
	L15,37.6c0,0-0.1-0.1-0.1-0.1c0,0-0.1-0.1-0.1-0.1l-0.1-0.1c0,0-0.1-0.1-0.1-0.2c-1.5-1.5-2.3-3.6-2.3-5.9c0-2.3,0.8-4.4,2.3-5.9
	l0.2-0.2c0,0,0.1-0.1,0.1-0.1l0.2-0.2c1.5-1.4,3.5-2.1,5.6-2.1c0.1,0,0.2,0,0.3,0c0.6,0,1.2-0.1,1.8-0.1c0.3,0,0.5,0,0.8,0
	c2.1,0.2,4.9-1.3,7.1-3.7c2-2.1,3-4.5,2.9-6.3c0-1,0-1.8,0.1-2.6c0-1,0.1-2,0.4-3l0.1-0.5l-0.5,0.1C17.5,10.6,6.1,25.1,6.1,41.9
	C6.1,58.6,17.5,73,33.7,77l0.5,0.1l-0.2-0.5c-0.3-0.9-0.4-1.9-0.4-3c-0.1-1-0.1-1.9-0.1-2.6c0.1-1.8-1-4.2-2.9-6.3
	C28.6,62.4,26,61,23.9,61c-0.1,0-0.2,0-0.3,0c-0.3,0-0.6,0-0.9,0c-2.7,0-6.4-0.3-8.6-3.2c-2.4-2.9-2.8-8.3,0.6-11.5
	c1.5-1.6,3.6-2.5,6-2.5c2.1,0,4.2,0.7,5.5,1.9c3,2.3,3.3,6.3,3.2,9.5c-0.2,2.5,1.3,5.1,4.6,7.8c2.4,2,6,2.7,10.9,2.3
	c3.6-0.4,6.7-2.3,8.7-5.6c2.3-3.7,2.6-9.4,0.5-13.5c-1.5-3.2-5.2-6.5-8.9-6.5l-0.2,0c-0.3,0-0.6,0-0.9,0c-2.7,0-6.5-0.3-8.7-3.2
	c-2.2-2.5-3-8.1,0.6-11.5c1.5-1.6,3.6-2.5,6-2.5c2.1,0,4.2,0.7,5.5,1.9c3,2.3,3.3,6.3,3.2,9.5c-0.1,1.8,1,4.2,2.9,6.3
	c2.1,2.3,4.7,3.7,6.8,3.7c0.1,0,0.2,0,0.3,0c0.3,0,0.5,0,0.8,0c0.7,0,1.2,0,1.8,0.1c2.3-0.1,4.4,0.7,5.9,2.1c0,0,0.1,0.1,0.1,0.1
	l0.1,0.1c0,0,0.1,0.1,0.2,0.1l0.1,0.1c0,0,0.1,0.1,0.1,0.1c1.5,1.5,2.3,3.6,2.3,5.9c0,2.3-0.8,4.4-2.3,5.9c0,0,0,0,0,0
	c0,0-0.1,0.1-0.1,0.1l-0.1,0.1c0,0.1-0.1,0.1-0.1,0.1l-0.1,0.1c0,0-0.1,0.1-0.1,0.1C68,60.2,66,61,63.8,61c-0.1,0-0.2,0-0.3,0
	c-0.6,0-1.2,0.1-1.8,0.1c-0.3,0-0.6,0-0.8,0c-2.1-0.2-4.9,1.3-7.1,3.7c-2,2.1-3.1,4.5-2.9,6.3c0,1,0,1.8-0.1,2.6c0,1-0.1,2-0.4,3
	l-0.2,0.5l0.5-0.1C67,73.1,78.4,58.6,78.4,41.9C78.4,25.1,67.1,10.7,50.8,6.7z"/>
</svg>
